<mxfile host="Electron" agent="Mozilla/5.0 (Macintosh; Intel Mac OS X 10_15_7) AppleWebKit/537.36 (KHTML, like Gecko) draw.io/28.1.2 Chrome/138.0.7204.243 Electron/37.4.0 Safari/537.36" version="28.1.2">
  <diagram name="Page-1" id="CacFpFTbY8CCw8kIk4El">
    <mxGraphModel dx="1200" dy="776" grid="1" gridSize="10" guides="1" tooltips="1" connect="1" arrows="1" fold="1" page="1" pageScale="1" pageWidth="850" pageHeight="1100" math="0" shadow="0">
      <root>
        <mxCell id="0" />
        <mxCell id="1" parent="0" />
        <mxCell id="MKVBZSeBgF7Z0eujOTCT-1" value="//This program will ask the user for numbers and calculate the sum. The sum of the numbers is shown when the user types in &quot;0&quot;." style="text;html=1;align=center;verticalAlign=middle;whiteSpace=wrap;rounded=0;" vertex="1" parent="1">
          <mxGeometry x="30" y="20" width="330" height="30" as="geometry" />
        </mxCell>
        <mxCell id="MKVBZSeBgF7Z0eujOTCT-4" style="edgeStyle=orthogonalEdgeStyle;rounded=0;orthogonalLoop=1;jettySize=auto;html=1;exitX=0.5;exitY=1;exitDx=0;exitDy=0;entryX=0.5;entryY=0;entryDx=0;entryDy=0;" edge="1" parent="1" source="MKVBZSeBgF7Z0eujOTCT-2" target="MKVBZSeBgF7Z0eujOTCT-3">
          <mxGeometry relative="1" as="geometry" />
        </mxCell>
        <mxCell id="MKVBZSeBgF7Z0eujOTCT-2" value="Start" style="ellipse;whiteSpace=wrap;html=1;" vertex="1" parent="1">
          <mxGeometry x="120" y="120" width="120" height="80" as="geometry" />
        </mxCell>
        <mxCell id="MKVBZSeBgF7Z0eujOTCT-6" style="edgeStyle=orthogonalEdgeStyle;rounded=0;orthogonalLoop=1;jettySize=auto;html=1;exitX=0.5;exitY=1;exitDx=0;exitDy=0;entryX=0.5;entryY=0;entryDx=0;entryDy=0;" edge="1" parent="1" source="MKVBZSeBgF7Z0eujOTCT-3" target="MKVBZSeBgF7Z0eujOTCT-5">
          <mxGeometry relative="1" as="geometry" />
        </mxCell>
        <mxCell id="MKVBZSeBgF7Z0eujOTCT-3" value="Declarations&lt;div&gt;num sum = 0&lt;/div&gt;&lt;div&gt;num inputNumber = 0&lt;/div&gt;" style="rounded=0;whiteSpace=wrap;html=1;" vertex="1" parent="1">
          <mxGeometry x="100" y="240" width="160" height="60" as="geometry" />
        </mxCell>
        <mxCell id="MKVBZSeBgF7Z0eujOTCT-8" style="edgeStyle=orthogonalEdgeStyle;rounded=0;orthogonalLoop=1;jettySize=auto;html=1;exitX=0.5;exitY=1;exitDx=0;exitDy=0;entryX=0.5;entryY=0;entryDx=0;entryDy=0;" edge="1" parent="1" source="MKVBZSeBgF7Z0eujOTCT-5" target="MKVBZSeBgF7Z0eujOTCT-7">
          <mxGeometry relative="1" as="geometry" />
        </mxCell>
        <mxCell id="MKVBZSeBgF7Z0eujOTCT-5" value="Output(&quot;Please enter a number:&quot;)&lt;div&gt;Input inputNumber&lt;/div&gt;" style="shape=parallelogram;perimeter=parallelogramPerimeter;whiteSpace=wrap;html=1;fixedSize=1;" vertex="1" parent="1">
          <mxGeometry x="90" y="340" width="180" height="60" as="geometry" />
        </mxCell>
        <mxCell id="MKVBZSeBgF7Z0eujOTCT-10" style="edgeStyle=orthogonalEdgeStyle;rounded=0;orthogonalLoop=1;jettySize=auto;html=1;exitX=1;exitY=0.5;exitDx=0;exitDy=0;entryX=0;entryY=0.5;entryDx=0;entryDy=0;" edge="1" parent="1" source="MKVBZSeBgF7Z0eujOTCT-7" target="MKVBZSeBgF7Z0eujOTCT-9">
          <mxGeometry relative="1" as="geometry" />
        </mxCell>
        <mxCell id="MKVBZSeBgF7Z0eujOTCT-14" value="Yes" style="edgeLabel;html=1;align=center;verticalAlign=middle;resizable=0;points=[];" vertex="1" connectable="0" parent="MKVBZSeBgF7Z0eujOTCT-10">
          <mxGeometry x="-0.075" y="2" relative="1" as="geometry">
            <mxPoint as="offset" />
          </mxGeometry>
        </mxCell>
        <mxCell id="MKVBZSeBgF7Z0eujOTCT-7" value="inputNumber &amp;lt;&amp;gt; 0?" style="rhombus;whiteSpace=wrap;html=1;" vertex="1" parent="1">
          <mxGeometry x="120" y="440" width="120" height="120" as="geometry" />
        </mxCell>
        <mxCell id="MKVBZSeBgF7Z0eujOTCT-13" style="edgeStyle=orthogonalEdgeStyle;rounded=0;orthogonalLoop=1;jettySize=auto;html=1;exitX=1;exitY=0.5;exitDx=0;exitDy=0;" edge="1" parent="1" source="MKVBZSeBgF7Z0eujOTCT-9" target="MKVBZSeBgF7Z0eujOTCT-12">
          <mxGeometry relative="1" as="geometry" />
        </mxCell>
        <mxCell id="MKVBZSeBgF7Z0eujOTCT-9" value="sum = sum+input number" style="rounded=0;whiteSpace=wrap;html=1;" vertex="1" parent="1">
          <mxGeometry x="320" y="470" width="120" height="60" as="geometry" />
        </mxCell>
        <mxCell id="MKVBZSeBgF7Z0eujOTCT-15" style="edgeStyle=orthogonalEdgeStyle;rounded=0;orthogonalLoop=1;jettySize=auto;html=1;exitX=1;exitY=0.5;exitDx=0;exitDy=0;" edge="1" parent="1" source="MKVBZSeBgF7Z0eujOTCT-12">
          <mxGeometry relative="1" as="geometry">
            <mxPoint x="180" y="420" as="targetPoint" />
            <Array as="points">
              <mxPoint x="690" y="500" />
              <mxPoint x="690" y="420" />
            </Array>
          </mxGeometry>
        </mxCell>
        <mxCell id="MKVBZSeBgF7Z0eujOTCT-12" value="Output(&quot;Please enter another number:&quot;)&lt;div&gt;Input inputNumber&lt;/div&gt;" style="shape=parallelogram;perimeter=parallelogramPerimeter;whiteSpace=wrap;html=1;fixedSize=1;" vertex="1" parent="1">
          <mxGeometry x="480" y="470" width="180" height="60" as="geometry" />
        </mxCell>
        <mxCell id="MKVBZSeBgF7Z0eujOTCT-19" style="edgeStyle=orthogonalEdgeStyle;rounded=0;orthogonalLoop=1;jettySize=auto;html=1;exitX=0.5;exitY=1;exitDx=0;exitDy=0;entryX=0.5;entryY=0;entryDx=0;entryDy=0;" edge="1" parent="1" source="MKVBZSeBgF7Z0eujOTCT-16" target="MKVBZSeBgF7Z0eujOTCT-18">
          <mxGeometry relative="1" as="geometry" />
        </mxCell>
        <mxCell id="MKVBZSeBgF7Z0eujOTCT-16" value="Output(&quot;The sum of your numbers is: &quot;, sum)" style="shape=parallelogram;perimeter=parallelogramPerimeter;whiteSpace=wrap;html=1;fixedSize=1;" vertex="1" parent="1">
          <mxGeometry x="90" y="600" width="190" height="60" as="geometry" />
        </mxCell>
        <mxCell id="MKVBZSeBgF7Z0eujOTCT-17" style="edgeStyle=orthogonalEdgeStyle;rounded=0;orthogonalLoop=1;jettySize=auto;html=1;exitX=0.5;exitY=1;exitDx=0;exitDy=0;entryX=0.455;entryY=-0.003;entryDx=0;entryDy=0;entryPerimeter=0;" edge="1" parent="1" source="MKVBZSeBgF7Z0eujOTCT-7" target="MKVBZSeBgF7Z0eujOTCT-16">
          <mxGeometry relative="1" as="geometry" />
        </mxCell>
        <mxCell id="MKVBZSeBgF7Z0eujOTCT-18" value="End" style="ellipse;whiteSpace=wrap;html=1;" vertex="1" parent="1">
          <mxGeometry x="125" y="710" width="120" height="80" as="geometry" />
        </mxCell>
      </root>
    </mxGraphModel>
  </diagram>
</mxfile>
